<svg width="1940" height="500" viewBox="0 0 1920 903" fill="none" xmlns="http://www.w3.org/2000/svg">
<path d="M1855.02 895C1885.01 884.2 1910.5 890.5 1919.5 895V0H-0.5V895C9.09753 889 19.1615 892.5 22.9939 895C35.6572 900.5 70.5815 908.2 108.972 895C147.361 881.8 182.952 889.5 195.949 895C210.945 900.333 248.935 907.8 280.927 895C312.918 882.2 349.909 889.667 364.405 895C381.234 900.5 425.189 908.2 466.378 895C507.568 881.8 540.526 889.5 551.856 895C555.355 900.167 574.25 907.4 621.838 895C669.426 882.6 699.651 889.833 708.815 895C726.977 899.833 774.198 906.6 817.787 895C861.376 883.4 898.932 890.167 912.262 895C923.593 900.833 957.85 909 1004.24 895C1050.63 881 1087.88 889.167 1100.71 895C1115.21 900.333 1154.3 907.8 1194.69 895C1235.08 882.2 1268.84 889.667 1280.67 895C1288.5 899.5 1312.86 905.8 1347.65 895C1382.44 884.2 1409.47 890.5 1418.63 895C1432.29 899.5 1467.22 905.8 1497.61 895C1528 884.2 1556.59 890.5 1567.09 895C1576.76 898.333 1601.88 903 1625.08 895C1648.27 887 1670.06 891.667 1678.06 895C1688.06 898.833 1714.25 904.2 1739.05 895C1763.84 885.8 1783.04 891.167 1789.53 895C1798.86 899.5 1825.02 905.8 1855.02 895Z" fill="url(#paint0_linear_0_523)"/>
<defs>
<linearGradient id="paint0_linear_0_523" x1="1603" y1="750" x2="859" y2="176" gradientUnits="userSpaceOnUse">
<stop stop-color="#F5E589"/>
<stop offset="1" stop-color="#75B16C"/>
</linearGradient>
</defs>
</svg>
