<svg width="16" height="13" viewBox="0 0 16 13" fill="none" xmlns="http://www.w3.org/2000/svg">
<path d="M8 2.48C8.256 2.032 8.576 1.648 8.96 1.328C9.42933 0.944 9.968 0.698666 10.576 0.591999C11.1947 0.474666 11.8027 0.506666 12.4 0.688C12.9973 0.858666 13.5093 1.16267 13.936 1.6C14.9387 2.63467 15.232 3.872 14.816 5.312C14.56 6.24 14.0267 7.2 13.216 8.192C12.192 9.41867 10.832 10.5653 9.136 11.632C8.816 11.8347 8.47467 12.0373 8.112 12.24C8.09067 12.2613 8.05867 12.272 8.016 12.272C7.97333 12.272 7.94133 12.2667 7.92 12.256C5.95733 11.136 4.37867 9.92533 3.184 8.624C2.288 7.67467 1.65333 6.672 1.28 5.616C0.917333 4.56 0.922667 3.6 1.296 2.736C1.57333 2.128 1.94667 1.64267 2.416 1.28C2.896 0.906666 3.46667 0.671999 4.128 0.575999C5.80267 0.352 7.08267 0.970666 7.968 2.432L8 2.48Z" fill="white"/>
<path d="M8 2.48L7.16794 3.03469L8.06546 4.381L8.86824 2.97614L8 2.48ZM8.96 1.328L8.32674 0.55401L8.31981 0.559779L8.96 1.328ZM10.576 0.591999L10.7488 1.57705L10.7623 1.57449L10.576 0.591999ZM12.4 0.688L12.1095 1.64488L12.1174 1.64727L12.1253 1.64952L12.4 0.688ZM13.936 1.6L14.6541 0.904081L14.6518 0.901675L13.936 1.6ZM14.816 5.312L13.8552 5.03444L13.852 5.04607L14.816 5.312ZM13.216 8.192L13.9837 8.83288L13.9903 8.82478L13.216 8.192ZM9.136 11.632L8.60361 10.7855L8.60095 10.7872L9.136 11.632ZM8.112 12.24L7.62418 11.3671L7.50303 11.4348L7.4049 11.5329L8.112 12.24ZM7.92 12.256L7.42437 13.1245L7.44822 13.1381L7.47278 13.1504L7.92 12.256ZM3.184 8.624L3.92072 7.94766L3.91124 7.93762L3.184 8.624ZM1.28 5.616L0.334183 5.94083L0.337186 5.94932L1.28 5.616ZM1.296 2.736L0.386181 2.32099L0.382014 2.33013L0.378031 2.33935L1.296 2.736ZM2.416 1.28L3.02745 2.07129L3.02994 2.06935L2.416 1.28ZM4.128 0.575999L3.99541 -0.415236L3.98434 -0.413629L4.128 0.575999ZM7.968 2.432L7.11272 2.95016L7.12394 2.96868L7.13594 2.98669L7.968 2.432ZM8.86824 2.97614C9.067 2.62831 9.31078 2.33739 9.60019 2.09622L8.31981 0.559779C7.84122 0.958609 7.445 1.43569 7.13176 1.98386L8.86824 2.97614ZM9.59324 2.10196C9.92727 1.82866 10.3067 1.65452 10.7488 1.57696L10.4032 -0.392958C9.62933 -0.257191 8.9314 0.059341 8.32676 0.554041L9.59324 2.10196ZM10.7623 1.57449C11.2238 1.48697 11.6681 1.51089 12.1095 1.64488L12.6905 -0.268881C11.9372 -0.497553 11.1656 -0.53764 10.3897 -0.390488L10.7623 1.57449ZM12.1253 1.64952C12.5581 1.77319 12.9173 1.9878 13.2202 2.29832L14.6518 0.901675C14.1014 0.337531 13.4365 -0.0558624 12.6747 -0.273524L12.1253 1.64952ZM13.2179 2.29591C13.9588 3.06051 14.1767 3.92184 13.8553 5.03446L15.7767 5.58954C16.2873 3.82216 15.9185 2.20883 14.6541 0.904085L13.2179 2.29591ZM13.852 5.04607C13.6431 5.80338 13.1919 6.64114 12.4417 7.55922L13.9903 8.82478C14.8614 7.75886 15.4769 6.67662 15.78 5.57793L13.852 5.04607ZM12.4483 7.55116C11.506 8.67994 10.2324 9.76111 8.60361 10.7855L9.66839 12.4785C11.4316 11.3696 12.878 10.1574 13.9837 8.83284L12.4483 7.55116ZM8.60095 10.7872C8.29783 10.9792 7.97236 11.1725 7.62418 11.3671L8.59982 13.1129C8.97697 12.9022 9.33417 12.6902 9.67105 12.4768L8.60095 10.7872ZM7.4049 11.5329C7.63724 11.3006 7.90452 11.272 8.016 11.272V13.272C8.21282 13.272 8.54409 13.2221 8.8191 12.9471L7.4049 11.5329ZM8.016 11.272C8.03365 11.272 8.07221 11.2729 8.1244 11.2816C8.17389 11.2899 8.26317 11.3095 8.36722 11.3616L7.47278 13.1504C7.70308 13.2656 7.92226 13.272 8.016 13.272V11.272ZM8.41563 11.3875C6.51899 10.3051 5.02903 9.15507 3.92065 7.94773L2.44735 9.30027C3.7283 10.6956 5.39567 11.9669 7.42437 13.1245L8.41563 11.3875ZM3.91124 7.93762C3.09523 7.07304 2.54263 6.18729 2.22281 5.28268L0.337186 5.94932C0.76404 7.15671 1.48077 8.27629 2.45676 9.31038L3.91124 7.93762ZM2.22578 5.29119C1.92805 4.42427 1.95733 3.72659 2.21397 3.13265L0.378031 2.33935C-0.111993 3.4734 -0.0933831 4.69573 0.334222 5.94081L2.22578 5.29119ZM2.20582 3.151C2.42438 2.67185 2.70219 2.32262 3.02745 2.07129L1.80455 0.488715C1.19114 0.962714 0.722284 1.58415 0.386181 2.32099L2.20582 3.151ZM3.02994 2.06935C3.35993 1.81269 3.76438 1.63926 4.27166 1.56563L3.98434 -0.413629C3.16896 -0.295266 2.43207 0.000638962 1.80206 0.490648L3.02994 2.06935ZM4.26058 1.56717C4.94104 1.47616 5.4761 1.56319 5.90883 1.77235C6.34238 1.9819 6.74976 2.35106 7.11272 2.95016L8.82328 1.91384C8.30091 1.0516 7.62562 0.380768 6.77917 -0.0283494C5.9319 -0.437862 4.98963 -0.548156 3.99542 -0.415174L4.26058 1.56717ZM7.13594 2.98669L7.16794 3.03469L8.83206 1.92531L8.80006 1.87731L7.13594 2.98669Z" fill="white"/>
</svg>
